<?xml version="1.0" encoding="UTF-8" standalone="no"?>
<!-- Created with Vectornator (http://vectornator.io/) -->

<svg
   height="128"
   stroke-miterlimit="10"
   style="fill-rule:nonzero;clip-rule:evenodd;stroke-linecap:round;stroke-linejoin:round;"
   version="1.1"
   viewBox="0 0 128 128"
   width="128"
   xml:space="preserve"
   id="svg5"
   sodipodi:docname="cosmic-store-icon.svg"
   inkscape:version="1.4.2 (ebf0e940d0, 2025-05-08)"
   xmlns:inkscape="http://www.inkscape.org/namespaces/inkscape"
   xmlns:sodipodi="http://sodipodi.sourceforge.net/DTD/sodipodi-0.dtd"
   xmlns:xlink="http://www.w3.org/1999/xlink"
   xmlns="http://www.w3.org/2000/svg"
   xmlns:svg="http://www.w3.org/2000/svg"><sodipodi:namedview
   id="namedview5"
   pagecolor="#505050"
   bordercolor="#eeeeee"
   borderopacity="1"
   inkscape:showpageshadow="0"
   inkscape:pageopacity="0"
   inkscape:pagecheckerboard="0"
   inkscape:deskcolor="#505050"
   inkscape:zoom="20.375"
   inkscape:cx="12.662577"
   inkscape:cy="12.343558"
   inkscape:window-width="1360"
   inkscape:window-height="689"
   inkscape:window-x="20"
   inkscape:window-y="20"
   inkscape:window-maximized="0"
   inkscape:current-layer="g47" />
<defs
   id="defs1"><pattern
     inkscape:collect="always"
     xlink:href="#Wave"
     preserveAspectRatio="xMidYMid"
     id="pattern54"
     patternTransform="scale(1)"
     x="0"
     y="0" /><pattern
     patternUnits="userSpaceOnUse"
     width="24"
     height="10"
     preserveAspectRatio="xMidYMid"
     id="Wave"
     style="fill:#452300"
     x="0"
     y="0"
     inkscape:collect="always"
     inkscape:isstock="true"
     inkscape:label="Wave"><g
       id="wave_g"
       style="display:inline"><path
         d="M 12,-2 C 9.1666695,-2 7.1679672,-0.56445187 5.4179687,0.68554687 3.6679703,1.9355456 2.1666645,3 0,3 V 5 C 2.8333305,5 4.8320328,3.5644519 6.5820312,2.3144531 8.3320297,1.0644544 9.8333355,0 12,0 14.166665,0 15.667971,1.0644544 17.417969,2.3144531 19.167967,3.5644519 21.166669,5 24,5 V 3 C 21.833335,3 20.332029,1.9355456 18.582031,0.68554687 16.832033,-0.56445189 14.833331,-2 12,-2 Z"
         id="path52" /><path
         d="M 12,3 C 9.1666695,3 7.1679672,4.4355481 5.4179687,5.6855469 3.6679703,6.9355456 2.1666645,8 0,8 v 2 C 2.8333305,10 4.8320328,8.5644519 6.5820312,7.3144531 8.3320297,6.0644544 9.8333355,5 12,5 14.166665,5 15.667971,6.0644544 17.417969,7.3144531 19.167967,8.5644519 21.166669,10 24,10 V 8 C 21.833335,8 20.332029,6.9355456 18.582031,5.6855469 16.832033,4.4355481 14.833331,3 12,3 Z"
         id="path53" /><path
         d="M 12,8 C 9.1666695,8 7.1679672,9.4355481 5.4179687,10.685547 3.6679703,11.935546 2.1666645,13 0,13 v 2 C 2.8333305,15 4.8320328,13.564452 6.5820312,12.314453 8.3320297,11.064454 9.8333355,10 12,10 c 2.166665,0 3.667971,1.064454 5.417969,2.314453 C 19.167967,13.564452 21.166669,15 24,15 V 13 C 21.833335,13 20.332029,11.935546 18.582031,10.685547 16.832033,9.4355481 14.833331,8 12,8 Z"
         id="path54" /></g></pattern><linearGradient
     id="linearGradient37"
     inkscape:collect="always"><stop
       style="stop-color:#552200;stop-opacity:1;"
       offset="0"
       id="stop37" /><stop
       style="stop-color:#8c5412;stop-opacity:1;"
       offset="1"
       id="stop38" /></linearGradient><linearGradient
     id="linearGradient35"
     inkscape:collect="always"><stop
       style="stop-color:#552200;stop-opacity:1;"
       offset="0"
       id="stop35" /><stop
       style="stop-color:#8c5412;stop-opacity:1;"
       offset="1"
       id="stop36" /></linearGradient><clipPath
     clipPathUnits="userSpaceOnUse"
     id="clipPath5"><path
       id="path30"
       style="stroke-width:0.1;stroke-linecap:square;paint-order:markers fill stroke;stop-color:#000000"
       d="m 438.25066,553.76374 859.87054,0 v 201.39554 l -859.87054,0 z"
       sodipodi:nodetypes="ccccc" /></clipPath><linearGradient
     id="linearGradient21"
     inkscape:collect="always"><stop
       style="stop-color:#552200;stop-opacity:1;"
       offset="0"
       id="stop21" /><stop
       style="stop-color:#8c5412;stop-opacity:1;"
       offset="1"
       id="stop22" /></linearGradient><linearGradient
     id="linearGradient8"
     inkscape:collect="always"><stop
       style="stop-color:#00004c;stop-opacity:1;"
       offset="0"
       id="stop8" /><stop
       style="stop-color:#002ea2;stop-opacity:1;"
       offset="1"
       id="stop9" /></linearGradient><linearGradient
     id="linearGradient6"
     inkscape:collect="always"><stop
       style="stop-color:#002ea2;stop-opacity:0.79614353;"
       offset="0"
       id="stop6" /><stop
       style="stop-color:#002ea2;stop-opacity:0.31532463;"
       offset="1"
       id="stop7" /></linearGradient><linearGradient
     inkscape:collect="always"
     xlink:href="#linearGradient6"
     id="linearGradient7"
     x1="48.71767"
     y1="44.76709"
     x2="80.16275"
     y2="44.76709"
     gradientUnits="userSpaceOnUse" /><linearGradient
     inkscape:collect="always"
     xlink:href="#linearGradient8"
     id="linearGradient9"
     x1="47.091278"
     y1="43.490074"
     x2="80.790497"
     y2="43.373955"
     gradientUnits="userSpaceOnUse" /><linearGradient
     inkscape:collect="always"
     xlink:href="#linearGradient21"
     id="linearGradient22"
     x1="44.3442"
     y1="41.0682"
     x2="83.6558"
     y2="41.0682"
     gradientUnits="userSpaceOnUse" /><linearGradient
     inkscape:collect="always"
     xlink:href="#linearGradient35"
     id="linearGradient36"
     x1="39.9762"
     y1="62.908"
     x2="88.0238"
     y2="62.908"
     gradientUnits="userSpaceOnUse" /><linearGradient
     inkscape:collect="always"
     xlink:href="#linearGradient37"
     id="linearGradient38"
     x1="39.9762"
     y1="90.2078"
     x2="88.0238"
     y2="90.2078"
     gradientUnits="userSpaceOnUse" /></defs>
<g
   id="Layer-1"
   transform="matrix(2.254172,0,0,2.254172,-80.762795,-79.996229)"
   style="fill-rule:nonzero;clip-rule:evenodd;stroke-linecap:round;stroke-linejoin:round">

<g
   opacity="1"
   id="g5"
   style="fill-rule:nonzero;clip-rule:evenodd;stroke-linecap:round;stroke-linejoin:round">
<path
   d="m 64.784,67.632 c 0,-7.882 5.8007,-8.902 5.8007,-12.3679 H 57.5835 c 0,2.9549 5.698,4.2194 5.698,12.3679 0,5.2109 -7.9344,7.2879 -7.9344,16.0238 H 72.6486 C 72.6508,74.9876 64.784,72.76 64.784,67.632 Z"
   fill="#606060"
   fill-rule="nonzero"
   opacity="1"
   stroke="none"
   id="path5"
   style="fill-rule:nonzero;clip-rule:evenodd;stroke-linecap:round;stroke-linejoin:round;fill:#ffc10e;fill-opacity:1" /><path
   style="fill-rule:nonzero;clip-rule:evenodd;stroke-linecap:round;stroke-linejoin:round;fill:url(#linearGradient7);stroke-width:2.36598;opacity:1"
   d="m 48.717672,44.197218 c -0.812854,10.799335 13.470137,13.818504 7.083434,24.153352 -6.386703,10.334847 -6.967313,16.024819 -6.967313,16.024819 l 30.423933,-0.348367 c 0,0 -6.154461,-19.160109 -9.289751,-20.089084 -3.13529,-0.928975 14.631358,-18.231136 9.173628,-19.972964 -5.457727,-1.741828 -30.423931,0.232244 -30.423931,0.232244 z"
   id="path6"
   sodipodi:nodetypes="csccssc" />
<path
   d="m 54.5586,42.0706 c 2.0246,0 5.0363,0.107 9.4414,0.107 10.8937,0 13.2546,0.0131 13.2546,1.2711 0,16.2991 -9.7886,14.0256 -9.7886,20.5513 0,6.5257 9.7908,4.4182 9.7908,20.5556 0,1.1903 -0.6006,1.4611 -2.9004,1.4611 -1.9328,0 -5.0581,-0.1922 -10.0332,-0.1922 -4.309,0 -7.3316,0.0961 -9.4151,0.0961 -3.1865,0 -4.1671,-0.2271 -4.1671,-1.365 0,-16.0544 9.6576,-14.032 9.6576,-20.5556 0,-6.5236 -9.6554,-4.3374 -9.6554,-20.5535 0,-1.1466 0.8365,-1.3759 3.8154,-1.3759 m 0,-3.5337 c -2.1992,0 -7.3491,0 -7.3491,4.9096 0,11.5708 4.6235,15.4495 7.6855,18.0157 1.8127,1.5222 1.9699,1.7996 1.9699,2.5378 0,0.795 -0.2446,1.1138 -2.0071,2.612 -3.0488,2.5924 -7.6504,6.5061 -7.6504,17.9436 0,4.9009 5.2022,4.9009 7.7007,4.9009 0.8692,0 1.9,-0.0175 3.1165,-0.0371 1.7035,-0.0284 3.7783,-0.0612 6.2986,-0.0612 3.0096,0 5.2962,0.0699 7.1329,0.1289 1.1772,0.0371 2.1294,0.0633 2.9003,0.0633 4.2697,0 6.4341,-1.6817 6.4341,-4.9948 0,-11.5183 -4.6803,-15.4189 -7.775,-17.996 -1.8564,-1.544 -2.018,-1.8236 -2.018,-2.5596 0,-0.7163 0.1594,-0.9893 1.9809,-2.4854 3.1099,-2.553 7.8077,-6.4143 7.8077,-18.0659 0,-1.8957 -1.0025,-4.2369 -5.7854,-4.63 C 72.9631,38.6505 69.8269,38.644 64,38.644 c -2.6011,0 -4.713,-0.0393 -6.4165,-0.0677 -1.1903,-0.0219 -2.1906,-0.0394 -3.0249,-0.0394 z"
   fill="currentColor"
   fill-rule="nonzero"
   opacity="1"
   stroke="none"
   id="path4"
   style="clip-rule:evenodd;fill:url(#linearGradient9);fill-opacity:1;fill-rule:nonzero;stroke-linecap:round;stroke-linejoin:round"
   transform="translate(1.0351177e-6)"
   sodipodi:nodetypes="csssssssssscsscscsscscsscscscscs" />



</g><g
   id="g38"
   style="fill-rule:nonzero;clip-rule:evenodd;stroke-linecap:round;stroke-linejoin:round;stroke:none;stroke-opacity:1"><path
     d="M 88.0238,92.3918 H 39.9762 v -2.184 c 0,-1.2034 0.9806,-2.184 2.184,-2.184 h 43.6796 c 1.2034,0 2.184,0.9806 2.184,2.184 z"
     fill="currentColor"
     fill-rule="nonzero"
     opacity="1"
     stroke="none"
     id="path1"
     style="fill:url(#linearGradient38);stroke:none;stroke-opacity:1" /><path
     d="m 44.3442,37.7922 h 39.3116 v 4.368 c 0,1.2033 -0.9806,2.184 -2.1839,2.184 H 46.5281 c -1.2033,0 -2.1839,-0.9807 -2.1839,-2.184 z"
     fill="currentColor"
     fill-rule="nonzero"
     opacity="1"
     stroke="none"
     id="path3"
     style="fill-rule:nonzero;clip-rule:evenodd;stroke-linecap:round;stroke-linejoin:round;stroke:none;stroke-opacity:1;fill:url(#linearGradient22)" /><path
     d="M 83.6558,90.2078 H 44.3442 v -4.368 c 0,-1.2033 0.9806,-2.184 2.1839,-2.184 h 34.9438 c 1.2033,0 2.1839,0.9807 2.1839,2.184 z M 39.9762,35.6082 h 48.0476 v 2.184 c 0,1.2034 -0.9806,2.184 -2.184,2.184 H 42.1602 c -1.2034,0 -2.184,-0.9806 -2.184,-2.184 z"
     fill="currentColor"
     fill-rule="nonzero"
     opacity="1"
     stroke="none"
     id="path2"
     style="fill:url(#linearGradient36);fill-opacity:1;fill-rule:nonzero;stroke:none;stroke-opacity:1" /></g><g
   id="g46"
   style="fill-rule:nonzero;clip-rule:evenodd;stroke-linecap:round;stroke-linejoin:round;stroke:none;stroke-opacity:1;fill:url(#pattern54);fill-opacity:1"><path
     d="M 88.0238,92.3918 H 39.9762 v -2.184 c 0,-1.2034 0.9806,-2.184 2.184,-2.184 h 43.6796 c 1.2034,0 2.184,0.9806 2.184,2.184 z"
     fill="currentColor"
     fill-rule="nonzero"
     opacity="1"
     stroke="none"
     id="path44"
     style="fill:url(#pattern54);stroke:none;stroke-opacity:1;fill-opacity:1" /><path
     d="m 44.3442,37.7922 h 39.3116 v 4.368 c 0,1.2033 -0.9806,2.184 -2.1839,2.184 H 46.5281 c -1.2033,0 -2.1839,-0.9807 -2.1839,-2.184 z"
     fill="currentColor"
     fill-rule="nonzero"
     opacity="1"
     stroke="none"
     id="path45"
     style="fill-rule:nonzero;clip-rule:evenodd;stroke-linecap:round;stroke-linejoin:round;stroke:none;stroke-opacity:1;fill:url(#pattern54);fill-opacity:1" /><path
     d="M 83.6558,90.2078 H 44.3442 v -4.368 c 0,-1.2033 0.9806,-2.184 2.1839,-2.184 h 34.9438 c 1.2033,0 2.1839,0.9807 2.1839,2.184 z M 39.9762,35.6082 h 48.0476 v 2.184 c 0,1.2034 -0.9806,2.184 -2.184,2.184 H 42.1602 c -1.2034,0 -2.184,-0.9806 -2.184,-2.184 z"
     fill="currentColor"
     fill-rule="nonzero"
     opacity="1"
     stroke="none"
     id="path46"
     style="fill:url(#pattern54);fill-opacity:1;fill-rule:nonzero;stroke:none;stroke-opacity:1" /></g><g
   id="g47"><path
     sodipodi:type="star"
     style="opacity:1;fill:#ffc1ff;fill-opacity:1;stroke-width:2.36598"
     id="path14"
     inkscape:flatsided="false"
     sodipodi:sides="5"
     sodipodi:cx="59.16864"
     sodipodi:cy="80.07888"
     sodipodi:r1="2.0934169"
     sodipodi:r2="1.0467086"
     sodipodi:arg1="0.5880026"
     sodipodi:arg2="1.2163211"
     inkscape:rounded="0"
     inkscape:randomized="0"
     d="m 60.910468,81.240099 -1.378517,-0.179585 -0.929441,1.03378 -0.25519,-1.366543 -1.270396,-0.564495 1.220802,-0.664985 0.144293,-1.382657 1.009686,0.95556 1.359574,-0.290034 -0.596781,1.255553 z"
     inkscape:transform-center-x="0.39435353"
     inkscape:transform-center-y="0.058773852"
     transform="translate(0.92897504,-1.974072)" /><path
     sodipodi:type="star"
     style="opacity:1;fill:#ffc1ff;fill-opacity:1;stroke-width:2.36598"
     id="path15"
     inkscape:flatsided="false"
     sodipodi:sides="5"
     sodipodi:cx="65.206978"
     sodipodi:cy="74.156662"
     sodipodi:r1="0.99891818"
     sodipodi:r2="0.49945915"
     sodipodi:arg1="0.95054684"
     sodipodi:arg2="1.5788654"
     inkscape:rounded="0"
     inkscape:randomized="0"
     d="m 65.787587,74.969515 -0.584639,-0.31341 -0.589621,0.303935 0.117407,-0.652875 -0.471262,-0.466841 0.657201,-0.09009 0.298365,-0.592459 0.288765,0.597197 0.655662,0.100682 -0.478734,0.459176 z"
     inkscape:transform-center-x="-0.0056145732"
     inkscape:transform-center-y="-0.20967463"
     transform="translate(-0.46448752,0.69673128)" /><path
     sodipodi:type="star"
     style="opacity:1;fill:#ffc1ff;fill-opacity:1;stroke-width:2.36598"
     id="path16"
     inkscape:flatsided="false"
     sodipodi:sides="5"
     sodipodi:cx="66.252075"
     sodipodi:cy="79.730515"
     sodipodi:r1="2.0901937"
     sodipodi:r2="1.045097"
     sodipodi:arg1="1.5707963"
     sodipodi:arg2="2.1991149"
     inkscape:rounded="0"
     inkscape:randomized="0"
     d="m 66.252075,81.820708 -0.614292,-1.244692 -1.3736,-0.199596 0.993946,-0.968858 -0.234639,-1.36805 1.228585,0.645906 1.228585,-0.645906 -0.234638,1.36805 0.993946,0.968858 -1.3736,0.199596 z"
     inkscape:transform-center-y="0.44992315"
     transform="translate(1.2773407,1.2773407)" /><path
     sodipodi:type="star"
     style="opacity:1;fill:#ffc1ff;fill-opacity:1;stroke-width:2.36598"
     id="path17"
     inkscape:flatsided="false"
     sodipodi:sides="5"
     sodipodi:cx="60.794346"
     sodipodi:cy="57.435112"
     sodipodi:r1="1.5794283"
     sodipodi:r2="0.78971422"
     sodipodi:arg1="0.62879629"
     sodipodi:arg2="1.2571148"
     inkscape:rounded="0"
     inkscape:randomized="0"
     d="m 62.071687,58.364087 -1.033665,-0.177796 -0.732464,0.750713 -0.150326,-1.038015 -0.940314,-0.464632 0.940757,-0.463733 0.151318,-1.037871 0.731747,0.751413 1.033834,-0.176808 -0.488514,0.928131 z"
     inkscape:transform-center-x="0.33947876"
     inkscape:transform-center-y="-0.00052562401"
     transform="translate(1.3934626,0.5806094)" /><path
     sodipodi:type="star"
     style="opacity:1;fill:#ffc1ff;fill-opacity:1;stroke-width:2.36598"
     id="path18"
     inkscape:flatsided="false"
     sodipodi:sides="5"
     sodipodi:cx="65.090858"
     sodipodi:cy="58.131844"
     sodipodi:r1="0.90694088"
     sodipodi:r2="0.4534705"
     sodipodi:arg1="-0.87605805"
     sodipodi:arg2="-0.24773952"
     inkscape:rounded="0"
     inkscape:randomized="0"
     d="m 65.671468,57.435112 -0.140984,0.585535 0.402423,0.448087 -0.600442,0.04686 -0.301801,0.521194 -0.23011,-0.556576 -0.588947,-0.125972 0.458227,-0.390839 -0.06219,-0.599049 0.51331,0.315024 z"
     inkscape:transform-center-x="0.041930132"
     inkscape:transform-center-y="0.15491451"
     transform="translate(1.2773407,0.92897504)" /><path
     sodipodi:type="star"
     style="opacity:1;fill:#ffffff;fill-opacity:0.274344;fill-rule:nonzero;stroke:none;stroke-width:2.36598;stroke-opacity:1"
     id="path55"
     inkscape:flatsided="true"
     sodipodi:sides="3"
     sodipodi:cx="66.135956"
     sodipodi:cy="46.287411"
     sodipodi:r1="5.0762929"
     sodipodi:r2="2.3369079"
     sodipodi:arg1="1.2689925"
     sodipodi:arg2="2.3161901"
     inkscape:rounded="0.25"
     inkscape:randomized="0"
     d="m 67.644848,51.134265 c -2.098749,0.653369 -6.944377,-3.819287 -6.460837,-5.963542 0.48354,-2.144255 6.779788,-4.104364 8.394997,-2.613479 1.61521,1.490886 0.16459,7.923651 -1.93416,8.577021 z"
     inkscape:transform-center-x="0.76466031"
     inkscape:transform-center-y="0.8117113"
     transform="rotate(-107.89683,69.673371,46.021922)" /><path
     sodipodi:type="star"
     style="clip-rule:evenodd;fill:#ffffff;fill-opacity:0.274344;fill-rule:nonzero;stroke:none;stroke-width:2.36598;stroke-linecap:round;stroke-linejoin:round;stroke-opacity:1"
     id="path55-5"
     inkscape:flatsided="true"
     sodipodi:sides="3"
     sodipodi:cx="66.135956"
     sodipodi:cy="46.287411"
     sodipodi:r1="5.076293"
     sodipodi:r2="2.3369079"
     sodipodi:arg1="1.2689925"
     sodipodi:arg2="2.3161901"
     inkscape:rounded="0.25"
     inkscape:randomized="0"
     d="m 67.644848,51.134265 c -2.098749,0.653369 -6.944377,-3.819287 -6.460837,-5.963542 0.48354,-2.144255 6.779788,-4.104364 8.394997,-2.613479 1.61521,1.490886 0.16459,7.923651 -1.93416,8.577021 z"
     inkscape:transform-center-x="1.3859271"
     inkscape:transform-center-y="-0.91354615"
     transform="rotate(-148.9852,72.93995,61.519306)" /></g></g>
</svg>
