<?xml version="1.0" encoding="UTF-8" standalone="no"?>
<!-- Created with Vectornator (http://vectornator.io/) -->

<svg
   height="24"
   stroke-miterlimit="10"
   style="fill-rule:nonzero;clip-rule:evenodd;stroke-linecap:round;stroke-linejoin:round;"
   version="1.1"
   viewBox="0 0 128 128"
   width="24"
   xml:space="preserve"
   id="svg5"
   sodipodi:docname="hourglass.svg"
   inkscape:version="1.4.2 (ebf0e940d0, 2025-05-08)"
   xmlns:inkscape="http://www.inkscape.org/namespaces/inkscape"
   xmlns:sodipodi="http://sodipodi.sourceforge.net/DTD/sodipodi-0.dtd"
   xmlns="http://www.w3.org/2000/svg"
   xmlns:svg="http://www.w3.org/2000/svg"><sodipodi:namedview
   id="namedview5"
   pagecolor="#505050"
   bordercolor="#eeeeee"
   borderopacity="1"
   inkscape:showpageshadow="0"
   inkscape:pageopacity="0"
   inkscape:pagecheckerboard="0"
   inkscape:deskcolor="#505050"
   inkscape:zoom="20.375"
   inkscape:cx="11.97546"
   inkscape:cy="12"
   inkscape:window-width="1360"
   inkscape:window-height="689"
   inkscape:window-x="20"
   inkscape:window-y="20"
   inkscape:window-maximized="0"
   inkscape:current-layer="svg5" />
<defs
   id="defs1" />
<g
   id="Layer-1"
   transform="matrix(2.254172,0,0,2.254172,-80.762797,-79.99623)">
<g
   opacity="1"
   id="g5">
<path
   d="M 88.0238,92.3918 H 39.9762 v -2.184 c 0,-1.2034 0.9806,-2.184 2.184,-2.184 h 43.6796 c 1.2034,0 2.184,0.9806 2.184,2.184 z"
   fill="currentColor"
   fill-rule="nonzero"
   opacity="1"
   stroke="none"
   id="path1" />
<path
   d="M 83.6558,90.2078 H 44.3442 v -4.368 c 0,-1.2033 0.9806,-2.184 2.1839,-2.184 h 34.9438 c 1.2033,0 2.1839,0.9807 2.1839,2.184 z M 39.9762,35.6082 h 48.0476 v 2.184 c 0,1.2034 -0.9806,2.184 -2.184,2.184 H 42.1602 c -1.2034,0 -2.184,-0.9806 -2.184,-2.184 z"
   fill="currentColor"
   fill-rule="nonzero"
   opacity="1"
   stroke="none"
   id="path2" />
<path
   d="m 44.3442,37.7922 h 39.3116 v 4.368 c 0,1.2033 -0.9806,2.184 -2.1839,2.184 H 46.5281 c -1.2033,0 -2.1839,-0.9807 -2.1839,-2.184 z"
   fill="currentColor"
   fill-rule="nonzero"
   opacity="1"
   stroke="none"
   id="path3" />
<path
   d="m 54.5586,42.0706 c 2.0246,0 5.0363,0.107 9.4414,0.107 10.8937,0 13.2546,0.0131 13.2546,1.2711 0,16.2991 -9.7886,14.0256 -9.7886,20.5513 0,6.5257 9.7908,4.4182 9.7908,20.5556 0,1.1903 -0.6006,1.4611 -2.9004,1.4611 -1.9328,0 -5.0581,-0.1922 -10.0332,-0.1922 -4.309,0 -7.3316,0.0961 -9.4151,0.0961 -3.1865,0 -4.1671,-0.2271 -4.1671,-1.365 0,-16.0544 9.6576,-14.032 9.6576,-20.5556 0,-6.5236 -9.6554,-4.3374 -9.6554,-20.5535 0,-1.1466 0.8365,-1.3759 3.8154,-1.3759 m 0,-3.5337 c -2.1992,0 -7.3491,0 -7.3491,4.9096 0,11.5708 4.6235,15.4495 7.6855,18.0157 1.8127,1.5222 1.9699,1.7996 1.9699,2.5378 0,0.795 -0.2446,1.1138 -2.0071,2.612 -3.0488,2.5924 -7.6504,6.5061 -7.6504,17.9436 0,4.9009 5.2022,4.9009 7.7007,4.9009 0.8692,0 1.9,-0.0175 3.1165,-0.0371 1.7035,-0.0284 3.7783,-0.0612 6.2986,-0.0612 3.0096,0 5.2962,0.0699 7.1329,0.1289 1.1772,0.0371 2.1294,0.0633 2.9003,0.0633 4.2697,0 6.4341,-1.6817 6.4341,-4.9948 0,-11.5183 -4.6803,-15.4189 -7.775,-17.996 -1.8564,-1.544 -2.018,-1.8236 -2.018,-2.5596 0,-0.7163 0.1594,-0.9893 1.9809,-2.4854 3.1099,-2.553 7.8077,-6.4143 7.8077,-18.0659 0,-1.8957 -1.0025,-4.2369 -5.7854,-4.63 C 72.9631,38.6505 69.8269,38.644 64,38.644 c -2.6011,0 -4.713,-0.0393 -6.4165,-0.0677 -1.1903,-0.0219 -2.1906,-0.0394 -3.0249,-0.0394 z"
   fill="currentColor"
   fill-rule="nonzero"
   opacity="1"
   stroke="none"
   id="path4" />
<path
   d="m 64.784,67.632 c 0,-7.882 5.8007,-8.902 5.8007,-12.3679 H 57.5835 c 0,2.9549 5.698,4.2194 5.698,12.3679 0,5.2109 -7.9344,7.2879 -7.9344,16.0238 H 72.6486 C 72.6508,74.9876 64.784,72.76 64.784,67.632 Z"
   fill="#606060"
   fill-rule="nonzero"
   opacity="1"
   stroke="none"
   id="path5" />
</g>
</g>
</svg>
